<?xml version="1.0" encoding="iso-8859-1"?>
<!-- Generator: Adobe Illustrator 16.0.0, SVG Export Plug-In . SVG Version: 6.00 Build 0)  -->
<!DOCTYPE svg PUBLIC "-//W3C//DTD SVG 1.1//EN" "http://www.w3.org/Graphics/SVG/1.1/DTD/svg11.dtd">
<svg version="1.1" id="Capa_1" xmlns="http://www.w3.org/2000/svg" xmlns:xlink="http://www.w3.org/1999/xlink" x="0px" y="0px"
	 width="108.364px" height="108.364px" viewBox="0 0 108.364 108.364" style="enable-background:new 0 0 108.364 108.364;"
	 xml:space="preserve">
<g>
	<g>
		<path d="M54.182,108.364c29.923,0,54.182-24.259,54.182-54.183C108.364,24.258,84.105,0,54.182,0C24.258,0,0,24.258,0,54.182
			C0,84.105,24.258,108.364,54.182,108.364z M68.713,37.653c3.422,0,6.199,0.972,6.199,2.17c0,1.199-2.777,2.171-6.199,2.171
			c-3.424,0-6.203-0.972-6.203-2.171C62.51,38.625,65.289,37.653,68.713,37.653z M40.594,33.622c3.422,0,6.199,2.777,6.199,6.201
			c0,3.426-2.777,6.203-6.199,6.203c-3.424,0-6.201-2.777-6.201-6.203C34.393,36.399,37.17,33.622,40.594,33.622z M32.797,59.227
			c0.377-0.156,0.766-0.23,1.15-0.23c1.176,0,2.291,0.695,2.771,1.85c2.777,6.686,9.654,11.004,17.523,11.004
			c7.688,0,14.526-4.321,17.42-11.01c0.658-1.521,2.424-2.223,3.944-1.564s2.222,2.424,1.563,3.945
			c-2.512,5.805-7.229,10.254-13.006,12.651v3.94c0,5.295-4.472,9.588-9.982,9.588c-5.511,0-9.98-4.293-9.98-9.588v-3.93
			c-5.863-2.406-10.594-6.886-13.023-12.734C30.541,61.618,31.268,59.862,32.797,59.227z"/>
	</g>
</g>
<g>
</g>
<g>
</g>
<g>
</g>
<g>
</g>
<g>
</g>
<g>
</g>
<g>
</g>
<g>
</g>
<g>
</g>
<g>
</g>
<g>
</g>
<g>
</g>
<g>
</g>
<g>
</g>
<g>
</g>
</svg>
